<svg width="23" height="30" viewBox="0 0 23 30" fill="none" xmlns="http://www.w3.org/2000/svg">
<path d="M8.15781 16.7143L9.41563 12.6429L6.10938 10H10.2063L11.5 6L12.7937 10H16.8906L13.5484 12.6429L14.8063 16.7143L11.5 14.1786L8.15781 16.7143ZM2.875 30V18.9643C1.96458 17.9643 1.25781 16.8214 0.754688 15.5357C0.251563 14.25 0 12.881 0 11.4286C0 8.2381 1.11406 5.53571 3.34219 3.32143C5.57031 1.10714 8.28958 0 11.5 0C14.7104 0 17.4297 1.10714 19.6578 3.32143C21.8859 5.53571 23 8.2381 23 11.4286C23 12.881 22.7484 14.25 22.2453 15.5357C21.7422 16.8214 21.0354 17.9643 20.125 18.9643V30L11.5 27.1429L2.875 30ZM11.5 20C13.8958 20 15.9323 19.1667 17.6094 17.5C19.2865 15.8333 20.125 13.8095 20.125 11.4286C20.125 9.04762 19.2865 7.02381 17.6094 5.35714C15.9323 3.69048 13.8958 2.85714 11.5 2.85714C9.10417 2.85714 7.06771 3.69048 5.39062 5.35714C3.71354 7.02381 2.875 9.04762 2.875 11.4286C2.875 13.8095 3.71354 15.8333 5.39062 17.5C7.06771 19.1667 9.10417 20 11.5 20ZM5.75 25.75L11.5 24.2857L17.25 25.75V21.3214C16.4115 21.7976 15.5068 22.1729 14.536 22.4471C13.5652 22.7214 12.5532 22.8581 11.5 22.8571C10.4458 22.8571 9.43335 22.72 8.46256 22.4457C7.49177 22.1714 6.58758 21.7971 5.75 21.3229V25.75Z" fill="#125DB9"/>
</svg>
