<svg width="25" height="22" viewBox="0 0 25 22" fill="none" xmlns="http://www.w3.org/2000/svg">
<path d="M2.27273 22C1.64773 22 1.11288 21.7734 0.668182 21.3203C0.223485 20.8672 0.000757576 20.3218 0 19.6842V5.78947C0 5.4614 0.109091 5.1866 0.327273 4.96505C0.545455 4.74351 0.815151 4.63235 1.13636 4.63158C1.45833 4.63158 1.72841 4.74274 1.94659 4.96505C2.16477 5.18737 2.27348 5.46217 2.27273 5.78947V19.6842H20.4545C20.7765 19.6842 21.0466 19.7954 21.2648 20.0177C21.483 20.24 21.5917 20.5148 21.5909 20.8421C21.5909 21.1702 21.4818 21.4454 21.2636 21.6677C21.0455 21.89 20.7758 22.0008 20.4545 22H2.27273ZM6.81818 17.3684C6.19318 17.3684 5.65833 17.1419 5.21364 16.6887C4.76894 16.2356 4.54621 15.6902 4.54545 15.0526V2.31579C4.54545 1.67895 4.76818 1.13396 5.21364 0.680842C5.65909 0.227719 6.19394 0.00077193 6.81818 0H11.5625C11.8655 0 12.1545 0.0578948 12.4295 0.173684C12.7045 0.289474 12.9458 0.453509 13.1534 0.665789L14.7727 2.31579H22.7273C23.3523 2.31579 23.8875 2.54274 24.333 2.99663C24.7784 3.45053 25.0008 3.99551 25 4.63158V15.0526C25 15.6895 24.7776 16.2348 24.333 16.6887C23.8883 17.1426 23.353 17.3692 22.7273 17.3684H6.81818ZM6.81818 15.0526H22.7273V4.63158H13.8352L11.5625 2.31579H6.81818V15.0526Z" fill="#125DB9"/>
</svg>
