<svg width="26" height="26" viewBox="0 0 26 26" fill="none" xmlns="http://www.w3.org/2000/svg">
<path d="M13.3611 11.3028L14.6972 12.6389L22.5333 4.80278L21.1972 3.46667L13.3611 11.3028ZM2.88889 23.1111H4.225L12.6389 14.6972L11.3028 13.3611L2.88889 21.775V23.1111ZM15.7083 15.7083L10.2917 10.2917L16.3222 4.26111L15.275 3.21389L8.37778 10.1111C8.08889 10.4 7.75185 10.5444 7.36667 10.5444C6.98148 10.5444 6.64444 10.4 6.35556 10.1111C6.06667 9.82222 5.92222 9.47941 5.92222 9.08267C5.92222 8.68593 6.06667 8.34263 6.35556 8.05278L13.2167 1.19167C13.7944 0.613889 14.4748 0.325 15.2577 0.325C16.0406 0.325 16.7204 0.613889 17.2972 1.19167L18.3444 2.23889L20.15 0.433333C20.4389 0.144444 20.7822 0 21.1799 0C21.5776 0 21.9204 0.144444 22.2083 0.433333L25.5667 3.79167C25.8556 4.08056 26 4.42337 26 4.82011C26 5.21685 25.8556 5.56015 25.5667 5.85L15.7083 15.7083ZM1.44444 26C1.03519 26 0.692371 25.8613 0.416 25.584C0.13963 25.3067 0.000962963 24.9639 0 24.5556V21.775C0 21.3898 0.0722224 21.0224 0.216667 20.6729C0.361111 20.3233 0.565741 20.0166 0.830556 19.7528L10.2917 10.2917L15.7083 15.7083L6.24722 25.1694C5.98241 25.4343 5.67522 25.6389 5.32567 25.7833C4.97611 25.9278 4.60922 26 4.225 26H1.44444Z" fill="#125DB9"/>
</svg>
