<svg width="20" height="20" viewBox="0 0 20 20" fill="none" xmlns="http://www.w3.org/2000/svg">
<path d="M10 18.025L10.15 13.8L13.2 10.8H15.15V12.65L17.425 13C17.6083 12.5333 17.7543 12.05 17.863 11.55C17.9717 11.05 18.0257 10.5333 18.025 10C18.025 8.51667 17.6543 7.16267 16.913 5.938C16.1717 4.71333 15.2007 3.75067 14 3.05V6H11V9H9V12H6.975L5 9H4V10L2.225 11.975C2.65833 13.7083 3.596 15.15 5.038 16.3C6.48 17.45 8.134 18.025 10 18.025ZM14 12H11V10H14V12ZM14 6H16.025L15.025 9H12.975L14 6ZM10 20C8.61667 20 7.31667 19.7373 6.1 19.212C4.88333 18.6867 3.825 17.9743 2.925 17.075C2.025 16.175 1.31267 15.1167 0.788 13.9C0.263333 12.6833 0.000666667 11.3833 0 10C0 8.61667 0.262667 7.31667 0.788 6.1C1.31333 4.88333 2.02567 3.825 2.925 2.925C3.825 2.025 4.88333 1.31267 6.1 0.788C7.31667 0.263333 8.61667 0.000666667 10 0C11.3833 0 12.6833 0.262667 13.9 0.788C15.1167 1.31333 16.175 2.02567 17.075 2.925C17.975 3.825 18.6877 4.88333 19.213 6.1C19.7383 7.31667 20.0007 8.61667 20 10C20 11.3833 19.7373 12.6833 19.212 13.9C18.6867 15.1167 17.9743 16.175 17.075 17.075C16.175 17.975 15.1167 18.6877 13.9 19.213C12.6833 19.7383 11.3833 20.0007 10 20Z" fill="#125DB9"/>
</svg>
