<svg width="25" height="31" viewBox="0 0 25 31" fill="none" xmlns="http://www.w3.org/2000/svg">
<path d="M12.5 12.4C10.7812 12.4 9.3099 11.7929 8.08594 10.5787C6.86198 9.36458 6.25 7.905 6.25 6.2C6.25 4.495 6.86198 3.03542 8.08594 1.82125C9.3099 0.607083 10.7812 0 12.5 0C14.2188 0 15.6901 0.607083 16.9141 1.82125C18.138 3.03542 18.75 4.495 18.75 6.2C18.75 7.905 18.138 9.36458 16.9141 10.5787C15.6901 11.7929 14.2188 12.4 12.5 12.4ZM12.5 9.3C13.3594 9.3 14.0953 8.99672 14.7078 8.39015C15.3203 7.78358 15.626 7.05353 15.625 6.2C15.625 5.3475 15.3193 4.61797 14.7078 4.0114C14.0964 3.40483 13.3604 3.10103 12.5 3.1C11.6406 3.1 10.9052 3.4038 10.2938 4.0114C9.68229 4.619 9.37604 5.34853 9.375 6.2C9.375 7.0525 9.68125 7.78255 10.2938 8.39015C10.9062 8.99775 11.6417 9.30103 12.5 9.3ZM0 31V20.4987C0 19.6204 0.221354 18.8134 0.664063 18.0776C1.10677 17.3419 1.71875 16.7669 2.5 16.3525C3.82812 15.6808 5.33229 15.1125 7.0125 14.6475C8.69271 14.1825 10.5219 13.95 12.5 13.95C14.4792 13.95 16.3089 14.1825 17.9891 14.6475C19.6693 15.1125 21.1729 15.6808 22.5 16.3525C23.2812 16.7658 23.8932 17.3409 24.3359 18.0776C24.7786 18.8144 25 19.6214 25 20.4987V27.9C25 28.7525 24.6943 29.4825 24.0828 30.0901C23.4714 30.6977 22.7354 31.001 21.875 31H8.98438C7.78646 31 6.77083 30.5867 5.9375 29.76C5.10417 28.9333 4.6875 27.9258 4.6875 26.7375C4.6875 25.5492 5.10417 24.5417 5.9375 23.715C6.77083 22.8883 7.78646 22.475 8.98438 22.475H13.3984L15.8203 17.36C15.2995 17.2567 14.7656 17.1792 14.2188 17.1275C13.6719 17.0758 13.099 17.05 12.5 17.05C10.625 17.05 8.95833 17.2758 7.5 17.7273C6.04167 18.1789 4.85677 18.6506 3.94531 19.1425C3.6849 19.2717 3.48333 19.4592 3.34063 19.7051C3.19792 19.9511 3.12604 20.2156 3.125 20.4987V31H0ZM8.98438 27.9H10.8594L11.9531 25.575H8.98438C8.67188 25.575 8.39844 25.6912 8.16406 25.9237C7.92969 26.1562 7.8125 26.4275 7.8125 26.7375C7.8125 27.0475 7.92969 27.3187 8.16406 27.5512C8.39844 27.7837 8.67188 27.9 8.98438 27.9ZM14.2969 27.9H21.875V20.4987C21.875 20.2146 21.8036 19.95 21.6609 19.7051C21.5182 19.4602 21.3292 19.2727 21.0938 19.1425C20.7812 18.9875 20.4427 18.8263 20.0781 18.6589C19.7135 18.4915 19.3229 18.3298 18.9062 18.1737L14.2969 27.9Z" fill="#125DB9"/>
</svg>
