<svg width="28" height="31" viewBox="0 0 28 31" fill="none" xmlns="http://www.w3.org/2000/svg">
<path d="M20.6316 31C18.593 31 16.8555 30.2801 15.4192 28.8403C13.9828 27.4006 13.2641 25.6601 13.2632 23.619C13.2632 21.577 13.9818 19.8366 15.4192 18.3978C16.8565 16.959 18.594 16.2391 20.6316 16.2381C22.6702 16.2381 24.4081 16.958 25.8455 18.3978C27.2828 19.8375 28.001 21.578 28 23.619C28 25.6611 27.2813 27.402 25.844 28.8418C24.4067 30.2816 22.6692 31.001 20.6316 31ZM23.1 27.125L24.1316 26.0917L21.3684 23.3238V19.1905H19.8947V23.9143L23.1 27.125ZM0 29.5238V2.95238H9.1C9.37018 2.09127 9.89825 1.38417 10.6842 0.831095C11.4702 0.278016 12.3298 0.000984127 13.2632 0C14.2456 0 15.1239 0.277032 15.8981 0.831095C16.6723 1.38516 17.194 2.09225 17.4632 2.95238H26.5263V15.131C26.0842 14.8111 25.6175 14.5405 25.1263 14.319C24.6351 14.0976 24.1193 13.9008 23.5789 13.7286V5.90476H20.6316V10.3333H5.89474V5.90476H2.94737V26.5714H10.7579C10.9298 27.1127 11.1263 27.6294 11.3474 28.1214C11.5684 28.6135 11.8386 29.081 12.1579 29.5238H0ZM13.2632 5.90476C13.6807 5.90476 14.0309 5.76305 14.3139 5.47962C14.5968 5.19619 14.7378 4.84584 14.7368 4.42857C14.7368 4.01032 14.5954 3.65997 14.3124 3.37752C14.0295 3.09508 13.6797 2.95337 13.2632 2.95238C12.8456 2.95238 12.4959 3.0941 12.2139 3.37752C11.9319 3.66095 11.7905 4.0113 11.7895 4.42857C11.7895 4.84683 11.9309 5.19767 12.2139 5.48109C12.4968 5.76452 12.8466 5.90575 13.2632 5.90476Z" fill="#125DB9"/>
</svg>
